<?xml version="1.0"?>
<svg version="1.1" id="topsvg"
xmlns="http://www.w3.org/2000/svg" xmlns:xlink="http://www.w3.org/1999/xlink"
xmlns:cml="http://www.xml-cml.org/schema" x="0" y="0" width="200px" height="200px" viewBox="0 0 100 100">
<title>OBDepict</title>
<rect x="0" y="0" width="100" height="100" fill="white"/>
<text text-anchor="middle" font-size="6" fill ="black" font-family="sans-serif"
x="50" y="98" ></text>
<g transform="translate(0,0)">
<svg width="100" height="100" x="0" y="0" viewBox="0 0 266.308 221.586"
font-family="sans-serif" stroke="rgb(0,0,0)" stroke-width="2"  stroke-linecap="round">
<line x1="164.7" y1="170.3" x2="178.2" y2="146.9" stroke="rgb(0,0,0)"  stroke-width="2.0"/>
<line x1="161.9" y1="110.4" x2="122.8" y2="102.1" stroke="rgb(0,0,0)"  stroke-width="2.0"/>
<line x1="66.8" y1="69.7" x2="48.7" y2="49.7" stroke="rgb(0,0,0)"  stroke-width="2.0"/>
<line x1="122.8" y1="102.1" x2="93.1" y2="128.9" stroke="rgb(0,0,0)"  stroke-width="2.0"/>
<line x1="113.5" y1="100.8" x2="92.7" y2="119.5" stroke="rgb(0,0,0)"  stroke-width="2.0"/>
<line x1="93.1" y1="128.9" x2="58.4" y2="108.9" stroke="rgb(0,0,0)"  stroke-width="2.0"/>
<line x1="58.4" y1="108.9" x2="66.8" y2="69.7" stroke="rgb(0,0,0)"  stroke-width="2.0"/>
<line x1="66.7" y1="104.5" x2="72.6" y2="77.1" stroke="rgb(0,0,0)"  stroke-width="2.0"/>
<line x1="66.8" y1="69.7" x2="93.6" y2="66.9" stroke="rgb(0,0,0)"  stroke-width="2.0"/>
<line x1="111.8" y1="77.4" x2="122.8" y2="102.1" stroke="rgb(0,0,0)"  stroke-width="2.0"/>
<line x1="178.2" y1="146.9" x2="161.9" y2="110.4" stroke="rgb(0,0,0)"  stroke-width="2.0"/>
<line x1="182.3" y1="138.5" x2="171.0" y2="113.0" stroke="rgb(0,0,0)"  stroke-width="2.0"/>
<line x1="161.9" y1="110.4" x2="182.0" y2="92.3" stroke="rgb(0,0,0)"  stroke-width="2.0"/>
<line x1="202.9" y1="90.1" x2="226.3" y2="103.6" stroke="rgb(0,0,0)"  stroke-width="2.0"/>
<line x1="226.3" y1="103.6" x2="218.0" y2="142.8" stroke="rgb(0,0,0)"  stroke-width="2.0"/>
<line x1="218.0" y1="108.0" x2="212.2" y2="135.4" stroke="rgb(0,0,0)"  stroke-width="2.0"/>
<line x1="218.0" y1="142.8" x2="178.2" y2="146.9" stroke="rgb(0,0,0)"  stroke-width="2.0"/>
<text x="144.210936" y="189.585775" fill="rgb(0,0,0)"  stroke="rgb(0,0,0)" stroke-width="1" font-size="16" >R</text>
<text x="156.210936" y="193.265775" fill="rgb(0,0,0)"  stroke="rgb(0,0,0)" stroke-width="1" font-size="13" >1</text>
<text x="22.000000" y="48.000000" fill="rgb(165,40,40)"  stroke="rgb(165,40,40)" stroke-width="1" font-size="16" >Br</text>
<text x="100.546100" y="73.544654" fill="rgb(255,12,12)"  stroke="rgb(255,12,12)" stroke-width="1" font-size="16" >O</text>
<text x="185.667263" y="91.637716" fill="rgb(255,12,12)"  stroke="rgb(255,12,12)" stroke-width="1" font-size="16" >O</text>
</svg>
</g>
</svg>

