<?xml version="1.0"?>
<svg version="1.1" id="topsvg"
xmlns="http://www.w3.org/2000/svg" xmlns:xlink="http://www.w3.org/1999/xlink"
xmlns:cml="http://www.xml-cml.org/schema" x="0" y="0" width="200px" height="200px" viewBox="0 0 100 100">
<title>OBDepict</title>
<rect x="0" y="0" width="100" height="100" fill="white"/>
<text text-anchor="middle" font-size="6" fill ="black" font-family="sans-serif"
x="50" y="98" ></text>
<g transform="translate(0,0)">
<svg width="100" height="100" x="0" y="0" viewBox="0 0 167.023 173.914"
font-family="sans-serif" stroke="rgb(0,0,0)" stroke-width="2"  stroke-linecap="round">
<line x1="119.4" y1="123.4" x2="103.5" y2="101.6" stroke="rgb(0,0,0)"  stroke-width="2.0"/>
<line x1="63.5" y1="101.6" x2="47.6" y2="123.4" stroke="rgb(0,0,0)"  stroke-width="2.0"/>
<line x1="103.5" y1="101.6" x2="63.5" y2="101.6" stroke="rgb(0,0,0)"  stroke-width="2.0"/>
<line x1="97.5" y1="94.4" x2="69.5" y2="94.4" stroke="rgb(0,0,0)"  stroke-width="2.0"/>
<line x1="63.5" y1="101.6" x2="55.2" y2="75.9" stroke="rgb(0,0,0)"  stroke-width="2.0"/>
<line x1="61.7" y1="55.9" x2="83.5" y2="40.0" stroke="rgb(0,0,0)"  stroke-width="2.0"/>
<line x1="83.5" y1="40.0" x2="115.9" y2="63.5" stroke="rgb(0,0,0)"  stroke-width="2.0"/>
<line x1="84.1" y1="49.4" x2="106.8" y2="65.8" stroke="rgb(0,0,0)"  stroke-width="2.0"/>
<line x1="115.9" y1="63.5" x2="103.5" y2="101.6" stroke="rgb(0,0,0)"  stroke-width="2.0"/>
<text x="123.022820" y="141.914351" fill="rgb(0,0,0)"  stroke="rgb(0,0,0)" stroke-width="1" font-size="16" >R</text>
<text x="135.022820" y="145.594351" fill="rgb(0,0,0)"  stroke="rgb(0,0,0)" stroke-width="1" font-size="13" >1</text>
<text x="14.000000" y="141.914351" fill="rgb(12,12,255)"  stroke="rgb(12,12,255)" stroke-width="1" font-size="16" >H</text>
<text x="26.000000" y="145.594351" fill="rgb(12,12,255)"  stroke="rgb(12,12,255)" stroke-width="1" font-size="13" >2</text>
<text x="32.500000" y="141.914351" fill="rgb(12,12,255)"  stroke="rgb(12,12,255)" stroke-width="1" font-size="16" >N</text>
<text x="45.150730" y="71.511410" fill="rgb(255,12,12)"  stroke="rgb(255,12,12)" stroke-width="1" font-size="16" >O</text>
</svg>
</g>
</svg>

