<?xml version="1.0"?>
<svg version="1.1" id="topsvg"
xmlns="http://www.w3.org/2000/svg" xmlns:xlink="http://www.w3.org/1999/xlink"
xmlns:cml="http://www.xml-cml.org/schema" x="0" y="0" width="200px" height="200px" viewBox="0 0 100 100">
<title>OBDepict</title>
<rect x="0" y="0" width="100" height="100" fill="white"/>
<text text-anchor="middle" font-size="6" fill ="black" font-family="sans-serif"
x="50" y="98" ></text>
<g transform="translate(0,0)">
<svg width="100" height="100" x="0" y="0" viewBox="0 0 193.914 173.914"
font-family="sans-serif" stroke="rgb(0,0,0)" stroke-width="2"  stroke-linecap="round">
<line x1="146.3" y1="123.4" x2="130.4" y2="101.6" stroke="rgb(0,0,0)"  stroke-width="2.0"/>
<line x1="78.0" y1="63.5" x2="52.4" y2="55.2" stroke="rgb(0,0,0)"  stroke-width="2.0"/>
<line x1="130.4" y1="101.6" x2="90.4" y2="101.6" stroke="rgb(0,0,0)"  stroke-width="2.0"/>
<line x1="124.4" y1="94.4" x2="96.4" y2="94.4" stroke="rgb(0,0,0)"  stroke-width="2.0"/>
<line x1="90.4" y1="101.6" x2="78.0" y2="63.5" stroke="rgb(0,0,0)"  stroke-width="2.0"/>
<line x1="78.0" y1="63.5" x2="110.4" y2="40.0" stroke="rgb(0,0,0)"  stroke-width="2.0"/>
<line x1="87.1" y1="65.8" x2="109.8" y2="49.4" stroke="rgb(0,0,0)"  stroke-width="2.0"/>
<line x1="110.4" y1="40.0" x2="132.2" y2="55.9" stroke="rgb(0,0,0)"  stroke-width="2.0"/>
<line x1="138.7" y1="75.9" x2="130.4" y2="101.6" stroke="rgb(0,0,0)"  stroke-width="2.0"/>
<text x="149.914351" y="141.914351" fill="rgb(0,0,0)"  stroke="rgb(0,0,0)" stroke-width="1" font-size="16" >R</text>
<text x="161.914351" y="145.594351" fill="rgb(0,0,0)"  stroke="rgb(0,0,0)" stroke-width="1" font-size="13" >1</text>
<text x="22.000000" y="59.150730" fill="rgb(30,239,30)"  stroke="rgb(30,239,30)" stroke-width="1" font-size="16" >Cl</text>
<text x="136.763620" y="71.511410" fill="rgb(178,178,0)"  stroke="rgb(178,178,0)" stroke-width="1" font-size="16" >S</text>
</svg>
</g>
</svg>

