<?xml version="1.0"?>
<svg version="1.1" id="topsvg"
xmlns="http://www.w3.org/2000/svg" xmlns:xlink="http://www.w3.org/1999/xlink"
xmlns:cml="http://www.xml-cml.org/schema" x="0" y="0" width="200px" height="200px" viewBox="0 0 100 100">
<title>OBDepict</title>
<rect x="0" y="0" width="100" height="100" fill="white"/>
<text text-anchor="middle" font-size="6" fill ="black" font-family="sans-serif"
x="50" y="98" ></text>
<g transform="translate(0,0)">
<svg width="100" height="100" x="0" y="0" viewBox="0 0 167.023 173.914"
font-family="sans-serif" stroke="rgb(0,0,0)" stroke-width="2"  stroke-linecap="round">
<line x1="119.4" y1="123.4" x2="103.5" y2="101.6" stroke="rgb(0,0,0)"  stroke-width="2.0"/>
<line x1="63.5" y1="101.6" x2="47.6" y2="123.4" stroke="rgb(0,0,0)"  stroke-width="2.0"/>
<line x1="103.5" y1="101.6" x2="63.5" y2="101.6" stroke="rgb(0,0,0)"  stroke-width="2.0"/>
<line x1="63.5" y1="101.6" x2="51.2" y2="63.5" stroke="rgb(0,0,0)"  stroke-width="2.0"/>
<line x1="68.5" y1="93.6" x2="59.9" y2="67.0" stroke="rgb(0,0,0)"  stroke-width="2.0"/>
<line x1="51.2" y1="63.5" x2="73.0" y2="47.6" stroke="rgb(0,0,0)"  stroke-width="2.0"/>
<line x1="94.0" y1="47.6" x2="115.9" y2="63.5" stroke="rgb(0,0,0)"  stroke-width="2.0"/>
<line x1="115.9" y1="63.5" x2="103.5" y2="101.6" stroke="rgb(0,0,0)"  stroke-width="2.0"/>
<line x1="107.2" y1="67.0" x2="98.5" y2="93.6" stroke="rgb(0,0,0)"  stroke-width="2.0"/>
<text x="123.022820" y="141.914351" fill="rgb(0,0,0)"  stroke="rgb(0,0,0)" stroke-width="1" font-size="16" >R</text>
<text x="135.022820" y="145.594351" fill="rgb(0,0,0)"  stroke="rgb(0,0,0)" stroke-width="1" font-size="13" >1</text>
<text x="22.000000" y="141.914351" fill="rgb(30,239,30)"  stroke="rgb(30,239,30)" stroke-width="1" font-size="16" >Cl</text>
<text x="77.511410" y="48.000000" fill="rgb(178,178,0)"  stroke="rgb(178,178,0)" stroke-width="1" font-size="16" >S</text>
</svg>
</g>
</svg>

