<?xml version="1.0"?>
<svg version="1.1" id="topsvg"
xmlns="http://www.w3.org/2000/svg" xmlns:xlink="http://www.w3.org/1999/xlink"
xmlns:cml="http://www.xml-cml.org/schema" x="0" y="0" width="200px" height="200px" viewBox="0 0 100 100">
<title>OBDepict</title>
<rect x="0" y="0" width="100" height="100" fill="white"/>
<text text-anchor="middle" font-size="6" fill ="black" font-family="sans-serif"
x="50" y="98" ></text>
<g transform="translate(0,0)">
<svg width="100" height="100" x="0" y="0" viewBox="0 0 233.695 173.914"
font-family="sans-serif" stroke="rgb(0,0,0)" stroke-width="2"  stroke-linecap="round">
<line x1="181.3" y1="55.2" x2="155.7" y2="63.5" stroke="rgb(0,0,0)"  stroke-width="2.0"/>
<line x1="103.3" y1="101.6" x2="79.8" y2="133.9" stroke="rgb(0,0,0)"  stroke-width="2.0"/>
<line x1="79.8" y1="133.9" x2="40.0" y2="129.7" stroke="rgb(0,0,0)"  stroke-width="2.0"/>
<line x1="155.7" y1="63.5" x2="143.3" y2="101.6" stroke="rgb(0,0,0)"  stroke-width="2.0"/>
<line x1="143.3" y1="101.6" x2="103.3" y2="101.6" stroke="rgb(0,0,0)"  stroke-width="2.0"/>
<line x1="137.3" y1="94.4" x2="109.3" y2="94.4" stroke="rgb(0,0,0)"  stroke-width="2.0"/>
<line x1="103.3" y1="101.6" x2="94.9" y2="75.9" stroke="rgb(0,0,0)"  stroke-width="2.0"/>
<line x1="101.4" y1="55.9" x2="123.3" y2="40.0" stroke="rgb(0,0,0)"  stroke-width="2.0"/>
<line x1="123.3" y1="40.0" x2="155.7" y2="63.5" stroke="rgb(0,0,0)"  stroke-width="2.0"/>
<line x1="123.9" y1="49.4" x2="146.6" y2="65.8" stroke="rgb(0,0,0)"  stroke-width="2.0"/>
<text x="189.695226" y="59.150730" fill="rgb(0,0,0)"  stroke="rgb(0,0,0)" stroke-width="1" font-size="16" >R</text>
<text x="201.695226" y="62.830730" fill="rgb(0,0,0)"  stroke="rgb(0,0,0)" stroke-width="1" font-size="13" >1</text>
<text x="84.931606" y="71.511410" fill="rgb(255,12,12)"  stroke="rgb(255,12,12)" stroke-width="1" font-size="16" >O</text>
</svg>
</g>
</svg>

