<?xml version="1.0"?>
<svg version="1.1" id="topsvg"
xmlns="http://www.w3.org/2000/svg" xmlns:xlink="http://www.w3.org/1999/xlink"
xmlns:cml="http://www.xml-cml.org/schema" x="0" y="0" width="200px" height="200px" viewBox="0 0 100 100">
<title>OBDepict</title>
<rect x="0" y="0" width="100" height="100" fill="white"/>
<text text-anchor="middle" font-size="6" fill ="black" font-family="sans-serif"
x="50" y="98" ></text>
<g transform="translate(0,0)">
<svg width="100" height="100" x="0" y="0" viewBox="0 0 193.914 173.914"
font-family="sans-serif" stroke="rgb(0,0,0)" stroke-width="2"  stroke-linecap="round">
<line x1="146.3" y1="123.4" x2="130.4" y2="101.6" stroke="rgb(0,0,0)"  stroke-width="2.0"/>
<line x1="78.0" y1="63.5" x2="52.4" y2="55.2" stroke="rgb(0,0,0)"  stroke-width="2.0"/>
<line x1="130.4" y1="101.6" x2="90.4" y2="101.6" stroke="rgb(0,0,0)"  stroke-width="2.0"/>
<line x1="90.4" y1="101.6" x2="78.0" y2="63.5" stroke="rgb(0,0,0)"  stroke-width="2.0"/>
<line x1="95.4" y1="93.6" x2="86.7" y2="67.0" stroke="rgb(0,0,0)"  stroke-width="2.0"/>
<line x1="78.0" y1="63.5" x2="99.9" y2="47.6" stroke="rgb(0,0,0)"  stroke-width="2.0"/>
<line x1="120.9" y1="47.6" x2="142.8" y2="63.5" stroke="rgb(0,0,0)"  stroke-width="2.0"/>
<line x1="142.8" y1="63.5" x2="130.4" y2="101.6" stroke="rgb(0,0,0)"  stroke-width="2.0"/>
<line x1="134.1" y1="67.0" x2="125.4" y2="93.6" stroke="rgb(0,0,0)"  stroke-width="2.0"/>
<text x="149.914351" y="141.914351" fill="rgb(0,0,0)"  stroke="rgb(0,0,0)" stroke-width="1" font-size="16" >R</text>
<text x="161.914351" y="145.594351" fill="rgb(0,0,0)"  stroke="rgb(0,0,0)" stroke-width="1" font-size="13" >1</text>
<text x="34.000000" y="59.150730" fill="rgb(127,178,255)"  stroke="rgb(127,178,255)" stroke-width="1" font-size="16" >F</text>
<text x="104.402940" y="48.000000" fill="rgb(255,12,12)"  stroke="rgb(255,12,12)" stroke-width="1" font-size="16" >O</text>
</svg>
</g>
</svg>

