<?xml version="1.0"?>
<svg version="1.1" id="topsvg"
xmlns="http://www.w3.org/2000/svg" xmlns:xlink="http://www.w3.org/1999/xlink"
xmlns:cml="http://www.xml-cml.org/schema" x="0" y="0" width="200px" height="200px" viewBox="0 0 100 100">
<title>OBDepict</title>
<rect x="0" y="0" width="100" height="100" fill="white"/>
<text text-anchor="middle" font-size="6" fill ="black" font-family="sans-serif"
x="50" y="98" ></text>
<g transform="translate(0,0)">
<svg width="100" height="100" x="0" y="0" viewBox="0 0 249.282 234.641"
font-family="sans-serif" stroke="rgb(0,0,0)" stroke-width="2"  stroke-linecap="round">
<line x1="134.6" y1="181.6" x2="134.6" y2="154.6" stroke="rgb(0,0,0)"  stroke-width="2.0"/>
<line x1="96.6" y1="90.4" x2="98.0" y2="89.6" stroke="rgb(0,0,0)"  stroke-width="2.0"/>
<line x1="93.9" y1="87.0" x2="96.4" y2="85.6" stroke="rgb(0,0,0)"  stroke-width="2.0"/>
<line x1="91.2" y1="83.6" x2="94.8" y2="81.5" stroke="rgb(0,0,0)"  stroke-width="2.0"/>
<line x1="88.5" y1="80.2" x2="93.2" y2="77.5" stroke="rgb(0,0,0)"  stroke-width="2.0"/>
<line x1="85.8" y1="76.8" x2="91.7" y2="73.5" stroke="rgb(0,0,0)"  stroke-width="2.0"/>
<line x1="83.1" y1="73.4" x2="90.1" y2="69.4" stroke="rgb(0,0,0)"  stroke-width="2.0"/>
<line x1="100.0" y1="94.6" x2="60.0" y2="94.6" stroke="rgb(0,0,0)"  stroke-width="2.0"/>
<line x1="60.0" y1="94.6" x2="46.5" y2="118.0" stroke="rgb(0,0,0)"  stroke-width="2.0"/>
<polygon points="134.641016 74.641016 144.576915 49.431535 151.505118 53.431535 " stroke-width="2.000000" fill="rgb(0,0,0)"  stroke="rgb(0,0,0)" />
<line x1="134.6" y1="74.6" x2="121.1" y2="51.3" stroke="rgb(0,0,0)"  stroke-width="2.0"/>
<line x1="174.6" y1="93.8" x2="174.6" y2="95.4" stroke="rgb(0,0,0)"  stroke-width="2.0"/>
<line x1="178.9" y1="93.2" x2="178.9" y2="96.1" stroke="rgb(0,0,0)"  stroke-width="2.0"/>
<line x1="183.2" y1="92.6" x2="183.2" y2="96.7" stroke="rgb(0,0,0)"  stroke-width="2.0"/>
<line x1="187.5" y1="91.9" x2="187.5" y2="97.4" stroke="rgb(0,0,0)"  stroke-width="2.0"/>
<line x1="191.8" y1="91.3" x2="191.8" y2="98.0" stroke="rgb(0,0,0)"  stroke-width="2.0"/>
<line x1="196.1" y1="90.6" x2="196.1" y2="98.6" stroke="rgb(0,0,0)"  stroke-width="2.0"/>
<line x1="169.3" y1="94.6" x2="182.8" y2="71.3" stroke="rgb(0,0,0)"  stroke-width="2.0"/>
<polygon points="169.282032 134.641016 186.146134 155.850497 179.217931 159.850497 " stroke-width="2.000000" fill="rgb(0,0,0)"  stroke="rgb(0,0,0)" />
<line x1="169.3" y1="134.6" x2="196.3" y2="134.6" stroke="rgb(0,0,0)"  stroke-width="2.0"/>
<line x1="134.6" y1="154.6" x2="111.3" y2="141.1" stroke="rgb(0,0,0)"  stroke-width="2.0"/>
<line x1="100.0" y1="121.6" x2="100.0" y2="94.6" stroke="rgb(0,0,0)"  stroke-width="2.0"/>
<line x1="100.0" y1="94.6" x2="134.6" y2="74.6" stroke="rgb(0,0,0)"  stroke-width="2.0"/>
<line x1="134.6" y1="74.6" x2="169.3" y2="94.6" stroke="rgb(0,0,0)"  stroke-width="2.0"/>
<line x1="169.3" y1="94.6" x2="169.3" y2="134.6" stroke="rgb(0,0,0)"  stroke-width="2.0"/>
<line x1="169.3" y1="134.6" x2="134.6" y2="154.6" stroke="rgb(0,0,0)"  stroke-width="2.0"/>
<text x="130.641016" y="202.641016" fill="rgb(0,0,0)"  stroke="rgb(0,0,0)" stroke-width="1" font-size="16" >R</text>
<text x="142.641016" y="206.321016" fill="rgb(0,0,0)"  stroke="rgb(0,0,0)" stroke-width="1" font-size="13" >1</text>
<text x="94.000000" y="142.641016" fill="rgb(255,12,12)"  stroke="rgb(255,12,12)" stroke-width="1" font-size="16" >O</text>
<text x="74.000000" y="68.000000" fill="rgb(191,191,191)"  stroke="rgb(191,191,191)" stroke-width="1" font-size="16" >H</text>
<text x="22.000000" y="137.282032" fill="rgb(255,12,12)"  stroke="rgb(255,12,12)" stroke-width="1" font-size="16" >HO</text>
<text x="148.641016" y="48.000000" fill="rgb(191,191,191)"  stroke="rgb(191,191,191)" stroke-width="1" font-size="16" >H</text>
<text x="96.641016" y="48.000000" fill="rgb(255,12,12)"  stroke="rgb(255,12,12)" stroke-width="1" font-size="16" >HO</text>
<text x="203.282032" y="102.641016" fill="rgb(191,191,191)"  stroke="rgb(191,191,191)" stroke-width="1" font-size="16" >H</text>
<text x="183.282032" y="68.000000" fill="rgb(255,12,12)"  stroke="rgb(255,12,12)" stroke-width="1" font-size="16" >OH</text>
<text x="183.282032" y="177.282032" fill="rgb(191,191,191)"  stroke="rgb(191,191,191)" stroke-width="1" font-size="16" >H</text>
<text x="203.282032" y="142.641016" fill="rgb(255,12,12)"  stroke="rgb(255,12,12)" stroke-width="1" font-size="16" >OH</text>
</svg>
</g>
</svg>

