<?xml version="1.0"?>
<svg version="1.1" id="topsvg"
xmlns="http://www.w3.org/2000/svg" xmlns:xlink="http://www.w3.org/1999/xlink"
xmlns:cml="http://www.xml-cml.org/schema" x="0" y="0" width="200px" height="200px" viewBox="0 0 100 100">
<title>OBDepict</title>
<rect x="0" y="0" width="100" height="100" fill="white"/>
<text text-anchor="middle" font-size="6" fill ="black" font-family="sans-serif"
x="50" y="98" ></text>
<g transform="translate(0,0)">
<svg width="100" height="100" x="0" y="0" viewBox="0 0 185.044 201.554"
font-family="sans-serif" stroke="rgb(0,0,0)" stroke-width="2"  stroke-linecap="round">
<line x1="52.4" y1="115.2" x2="78.0" y2="123.5" stroke="rgb(0,0,0)"  stroke-width="2.0"/>
<line x1="110.4" y1="100.0" x2="110.4" y2="73.0" stroke="rgb(0,0,0)"  stroke-width="2.0"/>
<line x1="121.7" y1="53.5" x2="133.8" y2="46.5" stroke="rgb(0,0,0)"  stroke-width="2.0"/>
<line x1="97.6" y1="56.1" x2="85.5" y2="49.1" stroke="rgb(0,0,0)"  stroke-width="2.0"/>
<line x1="100.6" y1="50.9" x2="88.5" y2="43.9" stroke="rgb(0,0,0)"  stroke-width="2.0"/>
<line x1="78.0" y1="123.5" x2="110.4" y2="100.0" stroke="rgb(0,0,0)"  stroke-width="2.0"/>
<line x1="87.1" y1="125.8" x2="109.8" y2="109.4" stroke="rgb(0,0,0)"  stroke-width="2.0"/>
<line x1="110.4" y1="100.0" x2="132.2" y2="115.9" stroke="rgb(0,0,0)"  stroke-width="2.0"/>
<line x1="138.7" y1="135.9" x2="130.4" y2="161.6" stroke="rgb(0,0,0)"  stroke-width="2.0"/>
<line x1="130.4" y1="161.6" x2="103.6" y2="161.6" stroke="rgb(0,0,0)"  stroke-width="2.0"/>
<line x1="124.4" y1="154.4" x2="105.6" y2="154.4" stroke="rgb(0,0,0)"  stroke-width="2.0"/>
<line x1="86.4" y1="149.2" x2="78.0" y2="123.5" stroke="rgb(0,0,0)"  stroke-width="2.0"/>
<text x="26.000000" y="119.150730" fill="rgb(0,0,0)"  stroke="rgb(0,0,0)" stroke-width="1" font-size="16" >R</text>
<text x="38.000000" y="122.830730" fill="rgb(0,0,0)"  stroke="rgb(0,0,0)" stroke-width="1" font-size="13" >1</text>
<text x="114.302940" y="56.724000" fill="rgb(12,12,255)"  stroke="rgb(12,12,255)" stroke-width="1" font-size="13" >+</text>
<text x="104.402940" y="68.000000" fill="rgb(12,12,255)"  stroke="rgb(12,12,255)" stroke-width="1" font-size="16" >N</text>
<text x="149.843957" y="25.888000" fill="rgb(255,12,12)"  stroke="rgb(255,12,12)" stroke-width="1" font-size="16" >_</text>
<text x="139.043957" y="48.000000" fill="rgb(255,12,12)"  stroke="rgb(255,12,12)" stroke-width="1" font-size="16" >O</text>
<text x="69.761924" y="48.000000" fill="rgb(255,12,12)"  stroke="rgb(255,12,12)" stroke-width="1" font-size="16" >O</text>
<text x="136.763620" y="131.511410" fill="rgb(12,12,255)"  stroke="rgb(12,12,255)" stroke-width="1" font-size="16" >NH</text>
<text x="84.402940" y="169.553671" fill="rgb(12,12,255)"  stroke="rgb(12,12,255)" stroke-width="1" font-size="16" >N</text>
</svg>
</g>
</svg>

