<?xml version="1.0"?>
<svg version="1.1" id="topsvg"
xmlns="http://www.w3.org/2000/svg" xmlns:xlink="http://www.w3.org/1999/xlink"
xmlns:cml="http://www.xml-cml.org/schema" x="0" y="0" width="200px" height="200px" viewBox="0 0 100 100">
<title>OBDepict</title>
<rect x="0" y="0" width="100" height="100" fill="white"/>
<text text-anchor="middle" font-size="6" fill ="black" font-family="sans-serif"
x="50" y="98" ></text>
<g transform="translate(0,0)">
<svg width="100" height="100" x="0" y="0" viewBox="0 0 195.653 250.456"
font-family="sans-serif" stroke="rgb(0,0,0)" stroke-width="2"  stroke-linecap="round">
<line x1="123.3" y1="53.0" x2="123.3" y2="80.0" stroke="rgb(0,0,0)"  stroke-width="2.0"/>
<line x1="103.3" y1="141.6" x2="87.4" y2="163.4" stroke="rgb(0,0,0)"  stroke-width="2.0"/>
<line x1="66.9" y1="172.6" x2="52.9" y2="171.1" stroke="rgb(0,0,0)"  stroke-width="2.0"/>
<line x1="87.8" y1="184.6" x2="93.5" y2="197.4" stroke="rgb(0,0,0)"  stroke-width="2.0"/>
<line x1="82.3" y1="187.0" x2="88.0" y2="199.8" stroke="rgb(0,0,0)"  stroke-width="2.0"/>
<line x1="123.3" y1="80.0" x2="145.0" y2="95.8" stroke="rgb(0,0,0)"  stroke-width="2.0"/>
<line x1="123.9" y1="89.4" x2="139.1" y2="100.4" stroke="rgb(0,0,0)"  stroke-width="2.0"/>
<line x1="151.6" y1="115.9" x2="143.3" y2="141.6" stroke="rgb(0,0,0)"  stroke-width="2.0"/>
<line x1="143.3" y1="141.6" x2="103.3" y2="141.6" stroke="rgb(0,0,0)"  stroke-width="2.0"/>
<line x1="137.3" y1="134.4" x2="109.3" y2="134.4" stroke="rgb(0,0,0)"  stroke-width="2.0"/>
<line x1="103.3" y1="141.6" x2="94.9" y2="115.9" stroke="rgb(0,0,0)"  stroke-width="2.0"/>
<line x1="101.4" y1="95.9" x2="123.3" y2="80.0" stroke="rgb(0,0,0)"  stroke-width="2.0"/>
<text x="119.292286" y="48.000000" fill="rgb(0,0,0)"  stroke="rgb(0,0,0)" stroke-width="1" font-size="16" >R</text>
<text x="131.292286" y="51.680000" fill="rgb(0,0,0)"  stroke="rgb(0,0,0)" stroke-width="1" font-size="13" >1</text>
<text x="149.652966" y="111.511410" fill="rgb(12,12,255)"  stroke="rgb(12,12,255)" stroke-width="1" font-size="16" >N</text>
<text x="84.580876" y="169.882351" fill="rgb(12,12,255)"  stroke="rgb(12,12,255)" stroke-width="1" font-size="16" >+</text>
<text x="73.780876" y="181.914351" fill="rgb(12,12,255)"  stroke="rgb(12,12,255)" stroke-width="1" font-size="16" >N</text>
<text x="44.800000" y="155.621212" fill="rgb(255,12,12)"  stroke="rgb(255,12,12)" stroke-width="1" font-size="16" >_</text>
<text x="34.000000" y="177.733212" fill="rgb(255,12,12)"  stroke="rgb(255,12,12)" stroke-width="1" font-size="16" >O</text>
<text x="90.050342" y="218.456169" fill="rgb(255,12,12)"  stroke="rgb(255,12,12)" stroke-width="1" font-size="16" >O</text>
<text x="72.931606" y="111.511410" fill="rgb(12,12,255)"  stroke="rgb(12,12,255)" stroke-width="1" font-size="16" >HN</text>
</svg>
</g>
</svg>

