<?xml version="1.0"?>
<svg version="1.1" id="topsvg"
xmlns="http://www.w3.org/2000/svg" xmlns:xlink="http://www.w3.org/1999/xlink"
xmlns:cml="http://www.xml-cml.org/schema" x="0" y="0" width="200px" height="200px" viewBox="0 0 100 100">
<title>OBDepict</title>
<rect x="0" y="0" width="100" height="100" fill="white"/>
<text text-anchor="middle" font-size="6" fill ="black" font-family="sans-serif"
x="50" y="98" ></text>
<g transform="translate(0,0)">
<svg width="100" height="100" x="0" y="0" viewBox="0 0 183.923 160"
font-family="sans-serif" stroke="rgb(0,0,0)" stroke-width="2"  stroke-linecap="round">
<line x1="132.7" y1="46.5" x2="109.3" y2="60.0" stroke="rgb(0,0,0)"  stroke-width="2.0"/>
<line x1="109.3" y1="100.0" x2="143.9" y2="120.0" stroke="rgb(0,0,0)"  stroke-width="2.0"/>
<line x1="109.3" y1="60.0" x2="109.3" y2="100.0" stroke="rgb(0,0,0)"  stroke-width="2.0"/>
<line x1="102.1" y1="66.0" x2="102.1" y2="94.0" stroke="rgb(0,0,0)"  stroke-width="2.0"/>
<line x1="109.3" y1="100.0" x2="74.6" y2="120.0" stroke="rgb(0,0,0)"  stroke-width="2.0"/>
<line x1="74.6" y1="120.0" x2="40.0" y2="100.0" stroke="rgb(0,0,0)"  stroke-width="2.0"/>
<line x1="73.0" y1="110.8" x2="48.8" y2="96.8" stroke="rgb(0,0,0)"  stroke-width="2.0"/>
<line x1="40.0" y1="100.0" x2="40.0" y2="60.0" stroke="rgb(0,0,0)"  stroke-width="2.0"/>
<line x1="40.0" y1="60.0" x2="74.6" y2="40.0" stroke="rgb(0,0,0)"  stroke-width="2.0"/>
<line x1="48.8" y1="63.2" x2="73.0" y2="49.2" stroke="rgb(0,0,0)"  stroke-width="2.0"/>
<line x1="74.6" y1="40.0" x2="109.3" y2="60.0" stroke="rgb(0,0,0)"  stroke-width="2.0"/>
<text x="139.923048" y="48.000000" fill="rgb(0,0,0)"  stroke="rgb(0,0,0)" stroke-width="1" font-size="16" >R</text>
<text x="151.923048" y="51.680000" fill="rgb(0,0,0)"  stroke="rgb(0,0,0)" stroke-width="1" font-size="13" >1</text>
</svg>
</g>
</svg>

